<?xml version="1.0" encoding="UTF-8"?>
<svg xmlns="http://www.w3.org/2000/svg" xmlns:xlink="http://www.w3.org/1999/xlink" width="255.317" height="255.318" viewBox="0 0 255.317 255.318">
<defs>
<clipPath id="clip-0">
<path clip-rule="nonzero" d="M 0 0 L 255.316406 0 L 255.316406 255.316406 L 0 255.316406 Z M 0 0 "/>
</clipPath>
<clipPath id="clip-1">
<path clip-rule="nonzero" d="M 102 204 L 154 204 L 154 255.316406 L 102 255.316406 Z M 102 204 "/>
</clipPath>
<clipPath id="clip-2">
<path clip-rule="nonzero" d="M 99 201 L 156 201 L 156 255.316406 L 99 255.316406 Z M 99 201 "/>
</clipPath>
<clipPath id="clip-3">
<path clip-rule="nonzero" d="M 170 85 L 255.316406 85 L 255.316406 171 L 170 171 Z M 170 85 "/>
</clipPath>
<clipPath id="clip-4">
<path clip-rule="nonzero" d="M 167 82 L 255.316406 82 L 255.316406 173 L 167 173 Z M 167 82 "/>
</clipPath>
<clipPath id="clip-5">
<path clip-rule="nonzero" d="M 102 204 L 154 204 L 154 255.316406 L 102 255.316406 Z M 102 204 "/>
</clipPath>
<clipPath id="clip-6">
<path clip-rule="nonzero" d="M 99 201 L 156 201 L 156 255.316406 L 99 255.316406 Z M 99 201 "/>
</clipPath>
<clipPath id="clip-7">
<path clip-rule="nonzero" d="M 170 85 L 255.316406 85 L 255.316406 171 L 170 171 Z M 170 85 "/>
</clipPath>
<clipPath id="clip-8">
<path clip-rule="nonzero" d="M 167 82 L 255.316406 82 L 255.316406 173 L 167 173 Z M 167 82 "/>
</clipPath>
</defs>
<g clip-path="url(#clip-0)">
<path fill-rule="nonzero" fill="rgb(69.999695%, 84.999084%, 84.999084%)" fill-opacity="1" stroke-width="0.19925" stroke-linecap="butt" stroke-linejoin="miter" stroke="rgb(50%, 50%, 50%)" stroke-opacity="1" stroke-miterlimit="10" d="M 255.122656 -0.00115625 C 255.122656 70.451969 198.013281 127.561344 127.560156 127.561344 C 57.110937 127.561344 0.0015625 70.451969 0.0015625 -0.00115625 C 0.0015625 -70.450375 57.110937 -127.55975 127.560156 -127.55975 C 198.013281 -127.55975 255.122656 -70.450375 255.122656 -0.00115625 Z M 255.122656 -0.00115625 " transform="matrix(1, 0, 0, -1, 0.1, 127.659)"/>
</g>
<path fill-rule="nonzero" fill="rgb(69.999695%, 84.999084%, 84.999084%)" fill-opacity="1" stroke-width="0.19925" stroke-linecap="butt" stroke-linejoin="miter" stroke="rgb(50%, 50%, 50%)" stroke-opacity="1" stroke-miterlimit="10" d="M 170.079688 -0.00115625 C 170.079688 46.967594 132.009375 85.041813 85.040625 85.041813 C 38.071875 85.041813 0.0015625 46.967594 0.0015625 -0.00115625 C 0.0015625 -46.966 38.071875 -85.040219 85.040625 -85.040219 C 132.009375 -85.040219 170.079688 -46.966 170.079688 -0.00115625 Z M 170.079688 -0.00115625 " transform="matrix(1, 0, 0, -1, 0.1, 127.659)"/>
<path fill-rule="nonzero" fill="rgb(0%, 50%, 50%)" fill-opacity="1" stroke-width="0.19925" stroke-linecap="butt" stroke-linejoin="miter" stroke="rgb(50%, 50%, 50%)" stroke-opacity="1" stroke-miterlimit="10" d="M 5.841406 -31.161312 C 5.841406 -30.62225 5.407813 -30.18475 4.86875 -30.18475 C 4.329688 -30.18475 3.896094 -30.62225 3.896094 -31.161312 C 3.896094 -31.696469 4.329688 -32.133969 4.86875 -32.133969 C 5.407813 -32.133969 5.841406 -31.696469 5.841406 -31.161312 Z M 5.841406 -31.161312 " transform="matrix(1, 0, 0, -1, 0.1, 127.659)"/>
<path fill-rule="nonzero" fill="rgb(0%, 50%, 50%)" fill-opacity="1" stroke-width="0.19925" stroke-linecap="butt" stroke-linejoin="miter" stroke="rgb(50%, 50%, 50%)" stroke-opacity="1" stroke-miterlimit="10" d="M 6.626563 -33.133969 C 6.626563 -32.524594 6.130469 -32.0285 5.521094 -32.0285 C 4.911719 -32.0285 4.419531 -32.524594 4.419531 -33.133969 C 4.419531 -33.743344 4.911719 -34.235531 5.521094 -34.235531 C 6.130469 -34.235531 6.626563 -33.743344 6.626563 -33.133969 Z M 6.626563 -33.133969 " transform="matrix(1, 0, 0, -1, 0.1, 127.659)"/>
<path fill-rule="nonzero" fill="rgb(0%, 50%, 50%)" fill-opacity="1" stroke-width="0.19925" stroke-linecap="butt" stroke-linejoin="miter" stroke="rgb(50%, 50%, 50%)" stroke-opacity="1" stroke-miterlimit="10" d="M 7.579688 -35.364437 C 7.579688 -34.665219 7.013281 -34.098812 6.314063 -34.098812 C 5.61875 -34.098812 5.052344 -34.665219 5.052344 -35.364437 C 5.052344 -36.05975 5.61875 -36.626156 6.314063 -36.626156 C 7.013281 -36.626156 7.579688 -36.05975 7.579688 -35.364437 Z M 7.579688 -35.364437 " transform="matrix(1, 0, 0, -1, 0.1, 127.659)"/>
<path fill-rule="nonzero" fill="rgb(0%, 50%, 50%)" fill-opacity="1" stroke-width="0.19925" stroke-linecap="butt" stroke-linejoin="miter" stroke="rgb(50%, 50%, 50%)" stroke-opacity="1" stroke-miterlimit="10" d="M 8.747656 -37.9035 C 8.747656 -37.098812 8.095313 -36.446469 7.290625 -36.446469 C 6.482031 -36.446469 5.829688 -37.098812 5.829688 -37.9035 C 5.829688 -38.708187 6.482031 -39.360531 7.290625 -39.360531 C 8.095313 -39.360531 8.747656 -38.708187 8.747656 -37.9035 Z M 8.747656 -37.9035 " transform="matrix(1, 0, 0, -1, 0.1, 127.659)"/>
<path fill-rule="nonzero" fill="rgb(0%, 50%, 50%)" fill-opacity="1" stroke-width="0.19925" stroke-linecap="butt" stroke-linejoin="miter" stroke="rgb(50%, 50%, 50%)" stroke-opacity="1" stroke-miterlimit="10" d="M 10.204688 -40.817562 C 10.204688 -39.880062 9.442969 -39.118344 8.505469 -39.118344 C 7.564063 -39.118344 6.802344 -39.880062 6.802344 -40.817562 C 6.802344 -41.758969 7.564063 -42.520687 8.505469 -42.520687 C 9.442969 -42.520687 10.204688 -41.758969 10.204688 -40.817562 Z M 10.204688 -40.817562 " transform="matrix(1, 0, 0, -1, 0.1, 127.659)"/>
<path fill-rule="nonzero" fill="rgb(0%, 50%, 50%)" fill-opacity="1" stroke-width="0.19925" stroke-linecap="butt" stroke-linejoin="miter" stroke="rgb(50%, 50%, 50%)" stroke-opacity="1" stroke-miterlimit="10" d="M 12.052344 -44.192562 C 12.052344 -43.083187 11.153906 -42.18475 10.044531 -42.18475 C 8.935156 -42.18475 8.036719 -43.083187 8.036719 -44.192562 C 8.036719 -45.301937 8.935156 -46.204281 10.044531 -46.204281 C 11.153906 -46.204281 12.052344 -45.301937 12.052344 -44.192562 Z M 12.052344 -44.192562 " transform="matrix(1, 0, 0, -1, 0.1, 127.659)"/>
<path fill-rule="nonzero" fill="rgb(0%, 50%, 50%)" fill-opacity="1" stroke-width="0.19925" stroke-linecap="butt" stroke-linejoin="miter" stroke="rgb(50%, 50%, 50%)" stroke-opacity="1" stroke-miterlimit="10" d="M 14.442969 -48.133969 C 14.442969 -46.805844 13.364844 -45.727719 12.032813 -45.727719 C 10.704688 -45.727719 9.626563 -46.805844 9.626563 -48.133969 C 9.626563 -49.466 10.704688 -50.544125 12.032813 -50.544125 C 13.364844 -50.544125 14.442969 -49.466 14.442969 -48.133969 Z M 14.442969 -48.133969 " transform="matrix(1, 0, 0, -1, 0.1, 127.659)"/>
<path fill-rule="nonzero" fill="rgb(0%, 50%, 50%)" fill-opacity="1" stroke-width="0.19925" stroke-linecap="butt" stroke-linejoin="miter" stroke="rgb(50%, 50%, 50%)" stroke-opacity="1" stroke-miterlimit="10" d="M 17.595312 -52.782406 C 17.595312 -51.165219 16.282812 -49.852719 14.661719 -49.852719 C 13.040625 -49.852719 11.728125 -51.165219 11.728125 -52.782406 C 11.728125 -54.4035 13.040625 -55.716 14.661719 -55.716 C 16.282812 -55.716 17.595312 -54.4035 17.595312 -52.782406 Z M 17.595312 -52.782406 " transform="matrix(1, 0, 0, -1, 0.1, 127.659)"/>
<path fill-rule="nonzero" fill="rgb(0%, 50%, 50%)" fill-opacity="1" stroke-width="0.19925" stroke-linecap="butt" stroke-linejoin="miter" stroke="rgb(50%, 50%, 50%)" stroke-opacity="1" stroke-miterlimit="10" d="M 21.86875 -58.313656 C 21.86875 -56.301937 20.235937 -54.669125 18.224219 -54.669125 C 16.208594 -54.669125 14.579688 -56.301937 14.579688 -58.313656 C 14.579688 -60.325375 16.208594 -61.958187 18.224219 -61.958187 C 20.235937 -61.958187 21.86875 -60.325375 21.86875 -58.313656 Z M 21.86875 -58.313656 " transform="matrix(1, 0, 0, -1, 0.1, 127.659)"/>
<path fill-rule="nonzero" fill="rgb(0%, 50%, 50%)" fill-opacity="1" stroke-width="0.19925" stroke-linecap="butt" stroke-linejoin="miter" stroke="rgb(50%, 50%, 50%)" stroke-opacity="1" stroke-miterlimit="10" d="M 27.829687 -64.938656 C 27.829687 -62.376156 25.755469 -60.301937 23.192969 -60.301937 C 20.630469 -60.301937 18.55625 -62.376156 18.55625 -64.938656 C 18.55625 -67.501156 20.630469 -69.579281 23.192969 -69.579281 C 25.755469 -69.579281 27.829687 -67.501156 27.829687 -64.938656 Z M 27.829687 -64.938656 " transform="matrix(1, 0, 0, -1, 0.1, 127.659)"/>
<path fill-rule="nonzero" fill="rgb(0%, 50%, 50%)" fill-opacity="1" stroke-width="0.19925" stroke-linecap="butt" stroke-linejoin="miter" stroke="rgb(50%, 50%, 50%)" stroke-opacity="1" stroke-miterlimit="10" d="M 36.446875 -72.891781 C 36.446875 -69.536312 33.724219 -66.817562 30.372656 -66.817562 C 27.017187 -66.817562 24.298437 -69.536312 24.298437 -72.891781 C 24.298437 -76.24725 27.017187 -78.966 30.372656 -78.966 C 33.724219 -78.966 36.446875 -76.24725 36.446875 -72.891781 Z M 36.446875 -72.891781 " transform="matrix(1, 0, 0, -1, 0.1, 127.659)"/>
<path fill-rule="nonzero" fill="rgb(0%, 50%, 50%)" fill-opacity="1" stroke-width="0.19925" stroke-linecap="butt" stroke-linejoin="miter" stroke="rgb(50%, 50%, 50%)" stroke-opacity="1" stroke-miterlimit="10" d="M 49.380469 -82.298031 C 49.380469 -77.751156 45.692969 -74.067562 41.15 -74.067562 C 36.603125 -74.067562 32.919531 -77.751156 32.919531 -82.298031 C 32.919531 -86.841 36.603125 -90.5285 41.15 -90.5285 C 45.692969 -90.5285 49.380469 -86.841 49.380469 -82.298031 Z M 49.380469 -82.298031 " transform="matrix(1, 0, 0, -1, 0.1, 127.659)"/>
<path fill-rule="nonzero" fill="rgb(0%, 50%, 50%)" fill-opacity="1" stroke-width="0.19925" stroke-linecap="butt" stroke-linejoin="miter" stroke="rgb(50%, 50%, 50%)" stroke-opacity="1" stroke-miterlimit="10" d="M 69.575781 -92.770687 C 69.575781 -86.368344 64.384375 -81.176937 57.982031 -81.176937 C 51.579687 -81.176937 46.388281 -86.368344 46.388281 -92.770687 C 46.388281 -99.173031 51.579687 -104.364437 57.982031 -104.364437 C 64.384375 -104.364437 69.575781 -99.173031 69.575781 -92.770687 Z M 69.575781 -92.770687 " transform="matrix(1, 0, 0, -1, 0.1, 127.659)"/>
<path fill-rule="nonzero" fill="rgb(0%, 50%, 50%)" fill-opacity="1" stroke-width="0.19925" stroke-linecap="butt" stroke-linejoin="miter" stroke="rgb(50%, 50%, 50%)" stroke-opacity="1" stroke-miterlimit="10" d="M 102.048438 -102.048031 C 102.048438 -92.657406 94.43125 -85.040219 85.040625 -85.040219 C 75.646094 -85.040219 68.032813 -92.657406 68.032813 -102.048031 C 68.032813 -111.442562 75.646094 -119.055844 85.040625 -119.055844 C 94.43125 -119.055844 102.048438 -111.442562 102.048438 -102.048031 Z M 102.048438 -102.048031 " transform="matrix(1, 0, 0, -1, 0.1, 127.659)"/>
<g clip-path="url(#clip-1)">
<path fill-rule="nonzero" fill="rgb(0%, 50%, 50%)" fill-opacity="1" d="M 153.175781 229.707031 C 153.175781 215.617188 141.75 204.195312 127.660156 204.195312 C 113.570312 204.195312 102.148438 215.617188 102.148438 229.707031 C 102.148438 243.796875 113.570312 255.21875 127.660156 255.21875 C 141.75 255.21875 153.175781 243.796875 153.175781 229.707031 Z M 153.175781 229.707031 "/>
</g>
<g clip-path="url(#clip-2)">
<path fill="none" stroke-width="0.19925" stroke-linecap="butt" stroke-linejoin="miter" stroke="rgb(50%, 50%, 50%)" stroke-opacity="1" stroke-miterlimit="10" d="M 153.075781 -102.048031 C 153.075781 -87.958187 141.65 -76.536312 127.560156 -76.536312 C 113.470313 -76.536312 102.048438 -87.958187 102.048438 -102.048031 C 102.048438 -116.137875 113.470313 -127.55975 127.560156 -127.55975 C 141.65 -127.55975 153.075781 -116.137875 153.075781 -102.048031 Z M 153.075781 -102.048031 " transform="matrix(1, 0, 0, -1, 0.1, 127.659)"/>
</g>
<path fill-rule="nonzero" fill="rgb(0%, 50%, 50%)" fill-opacity="1" stroke-width="0.19925" stroke-linecap="butt" stroke-linejoin="miter" stroke="rgb(50%, 50%, 50%)" stroke-opacity="1" stroke-miterlimit="10" d="M 218.65 -72.891781 C 218.65 -52.774594 202.341406 -36.469906 182.228125 -36.469906 C 162.110938 -36.469906 145.802344 -52.774594 145.802344 -72.891781 C 145.802344 -93.008969 162.110938 -109.317562 182.228125 -109.317562 C 202.341406 -109.317562 218.65 -93.008969 218.65 -72.891781 Z M 218.65 -72.891781 " transform="matrix(1, 0, 0, -1, 0.1, 127.659)"/>
<g clip-path="url(#clip-3)">
<path fill-rule="nonzero" fill="rgb(0%, 50%, 50%)" fill-opacity="1" d="M 255.199219 127.660156 C 255.199219 104.1875 236.171875 85.160156 212.699219 85.160156 C 189.230469 85.160156 170.203125 104.1875 170.203125 127.660156 C 170.203125 151.132812 189.230469 170.160156 212.699219 170.160156 C 236.171875 170.160156 255.199219 151.132812 255.199219 127.660156 Z M 255.199219 127.660156 "/>
</g>
<g clip-path="url(#clip-4)">
<path fill="none" stroke-width="0.19925" stroke-linecap="butt" stroke-linejoin="miter" stroke="rgb(50%, 50%, 50%)" stroke-opacity="1" stroke-miterlimit="10" d="M 255.099219 -0.00115625 C 255.099219 23.4715 236.071875 42.498844 212.599219 42.498844 C 189.130469 42.498844 170.103125 23.4715 170.103125 -0.00115625 C 170.103125 -23.473812 189.130469 -42.501156 212.599219 -42.501156 C 236.071875 -42.501156 255.099219 -23.473812 255.099219 -0.00115625 Z M 255.099219 -0.00115625 " transform="matrix(1, 0, 0, -1, 0.1, 127.659)"/>
</g>
<path fill-rule="nonzero" fill="rgb(0%, 50%, 50%)" fill-opacity="1" stroke-width="0.19925" stroke-linecap="butt" stroke-linejoin="miter" stroke="rgb(50%, 50%, 50%)" stroke-opacity="1" stroke-miterlimit="10" d="M 6.626563 -33.133969 C 6.626563 -32.524594 6.130469 -32.0285 5.521094 -32.0285 C 4.911719 -32.0285 4.419531 -32.524594 4.419531 -33.133969 C 4.419531 -33.743344 4.911719 -34.235531 5.521094 -34.235531 C 6.130469 -34.235531 6.626563 -33.743344 6.626563 -33.133969 Z M 6.626563 -33.133969 " transform="matrix(1, 0, 0, -1, 0.1, 127.659)"/>
<path fill-rule="nonzero" fill="rgb(0%, 50%, 50%)" fill-opacity="1" stroke-width="0.19925" stroke-linecap="butt" stroke-linejoin="miter" stroke="rgb(50%, 50%, 50%)" stroke-opacity="1" stroke-miterlimit="10" d="M 7.579688 -35.364437 C 7.579688 -34.665219 7.013281 -34.098812 6.314063 -34.098812 C 5.61875 -34.098812 5.052344 -34.665219 5.052344 -35.364437 C 5.052344 -36.05975 5.61875 -36.626156 6.314063 -36.626156 C 7.013281 -36.626156 7.579688 -36.05975 7.579688 -35.364437 Z M 7.579688 -35.364437 " transform="matrix(1, 0, 0, -1, 0.1, 127.659)"/>
<path fill-rule="nonzero" fill="rgb(0%, 50%, 50%)" fill-opacity="1" stroke-width="0.19925" stroke-linecap="butt" stroke-linejoin="miter" stroke="rgb(50%, 50%, 50%)" stroke-opacity="1" stroke-miterlimit="10" d="M 8.747656 -37.9035 C 8.747656 -37.098812 8.095313 -36.446469 7.290625 -36.446469 C 6.482031 -36.446469 5.829688 -37.098812 5.829688 -37.9035 C 5.829688 -38.708187 6.482031 -39.360531 7.290625 -39.360531 C 8.095313 -39.360531 8.747656 -38.708187 8.747656 -37.9035 Z M 8.747656 -37.9035 " transform="matrix(1, 0, 0, -1, 0.1, 127.659)"/>
<path fill-rule="nonzero" fill="rgb(0%, 50%, 50%)" fill-opacity="1" stroke-width="0.19925" stroke-linecap="butt" stroke-linejoin="miter" stroke="rgb(50%, 50%, 50%)" stroke-opacity="1" stroke-miterlimit="10" d="M 10.204688 -40.817562 C 10.204688 -39.880062 9.442969 -39.118344 8.505469 -39.118344 C 7.564063 -39.118344 6.802344 -39.880062 6.802344 -40.817562 C 6.802344 -41.758969 7.564063 -42.520687 8.505469 -42.520687 C 9.442969 -42.520687 10.204688 -41.758969 10.204688 -40.817562 Z M 10.204688 -40.817562 " transform="matrix(1, 0, 0, -1, 0.1, 127.659)"/>
<path fill-rule="nonzero" fill="rgb(0%, 50%, 50%)" fill-opacity="1" stroke-width="0.19925" stroke-linecap="butt" stroke-linejoin="miter" stroke="rgb(50%, 50%, 50%)" stroke-opacity="1" stroke-miterlimit="10" d="M 12.052344 -44.192562 C 12.052344 -43.083187 11.153906 -42.18475 10.044531 -42.18475 C 8.935156 -42.18475 8.036719 -43.083187 8.036719 -44.192562 C 8.036719 -45.301937 8.935156 -46.204281 10.044531 -46.204281 C 11.153906 -46.204281 12.052344 -45.301937 12.052344 -44.192562 Z M 12.052344 -44.192562 " transform="matrix(1, 0, 0, -1, 0.1, 127.659)"/>
<path fill-rule="nonzero" fill="rgb(0%, 50%, 50%)" fill-opacity="1" stroke-width="0.19925" stroke-linecap="butt" stroke-linejoin="miter" stroke="rgb(50%, 50%, 50%)" stroke-opacity="1" stroke-miterlimit="10" d="M 14.442969 -48.133969 C 14.442969 -46.805844 13.364844 -45.727719 12.032813 -45.727719 C 10.704688 -45.727719 9.626563 -46.805844 9.626563 -48.133969 C 9.626563 -49.466 10.704688 -50.544125 12.032813 -50.544125 C 13.364844 -50.544125 14.442969 -49.466 14.442969 -48.133969 Z M 14.442969 -48.133969 " transform="matrix(1, 0, 0, -1, 0.1, 127.659)"/>
<path fill-rule="nonzero" fill="rgb(0%, 50%, 50%)" fill-opacity="1" stroke-width="0.19925" stroke-linecap="butt" stroke-linejoin="miter" stroke="rgb(50%, 50%, 50%)" stroke-opacity="1" stroke-miterlimit="10" d="M 17.595312 -52.782406 C 17.595312 -51.165219 16.282812 -49.852719 14.661719 -49.852719 C 13.040625 -49.852719 11.728125 -51.165219 11.728125 -52.782406 C 11.728125 -54.4035 13.040625 -55.716 14.661719 -55.716 C 16.282812 -55.716 17.595312 -54.4035 17.595312 -52.782406 Z M 17.595312 -52.782406 " transform="matrix(1, 0, 0, -1, 0.1, 127.659)"/>
<path fill-rule="nonzero" fill="rgb(0%, 50%, 50%)" fill-opacity="1" stroke-width="0.19925" stroke-linecap="butt" stroke-linejoin="miter" stroke="rgb(50%, 50%, 50%)" stroke-opacity="1" stroke-miterlimit="10" d="M 21.86875 -58.313656 C 21.86875 -56.301937 20.235937 -54.669125 18.224219 -54.669125 C 16.208594 -54.669125 14.579688 -56.301937 14.579688 -58.313656 C 14.579688 -60.325375 16.208594 -61.958187 18.224219 -61.958187 C 20.235937 -61.958187 21.86875 -60.325375 21.86875 -58.313656 Z M 21.86875 -58.313656 " transform="matrix(1, 0, 0, -1, 0.1, 127.659)"/>
<path fill-rule="nonzero" fill="rgb(0%, 50%, 50%)" fill-opacity="1" stroke-width="0.19925" stroke-linecap="butt" stroke-linejoin="miter" stroke="rgb(50%, 50%, 50%)" stroke-opacity="1" stroke-miterlimit="10" d="M 27.829687 -64.938656 C 27.829687 -62.376156 25.755469 -60.301937 23.192969 -60.301937 C 20.630469 -60.301937 18.55625 -62.376156 18.55625 -64.938656 C 18.55625 -67.501156 20.630469 -69.579281 23.192969 -69.579281 C 25.755469 -69.579281 27.829687 -67.501156 27.829687 -64.938656 Z M 27.829687 -64.938656 " transform="matrix(1, 0, 0, -1, 0.1, 127.659)"/>
<path fill-rule="nonzero" fill="rgb(0%, 50%, 50%)" fill-opacity="1" stroke-width="0.19925" stroke-linecap="butt" stroke-linejoin="miter" stroke="rgb(50%, 50%, 50%)" stroke-opacity="1" stroke-miterlimit="10" d="M 36.446875 -72.891781 C 36.446875 -69.536312 33.724219 -66.817562 30.372656 -66.817562 C 27.017187 -66.817562 24.298437 -69.536312 24.298437 -72.891781 C 24.298437 -76.24725 27.017187 -78.966 30.372656 -78.966 C 33.724219 -78.966 36.446875 -76.24725 36.446875 -72.891781 Z M 36.446875 -72.891781 " transform="matrix(1, 0, 0, -1, 0.1, 127.659)"/>
<path fill-rule="nonzero" fill="rgb(0%, 50%, 50%)" fill-opacity="1" stroke-width="0.19925" stroke-linecap="butt" stroke-linejoin="miter" stroke="rgb(50%, 50%, 50%)" stroke-opacity="1" stroke-miterlimit="10" d="M 49.380469 -82.298031 C 49.380469 -77.751156 45.692969 -74.067562 41.15 -74.067562 C 36.603125 -74.067562 32.919531 -77.751156 32.919531 -82.298031 C 32.919531 -86.841 36.603125 -90.5285 41.15 -90.5285 C 45.692969 -90.5285 49.380469 -86.841 49.380469 -82.298031 Z M 49.380469 -82.298031 " transform="matrix(1, 0, 0, -1, 0.1, 127.659)"/>
<path fill-rule="nonzero" fill="rgb(0%, 50%, 50%)" fill-opacity="1" stroke-width="0.19925" stroke-linecap="butt" stroke-linejoin="miter" stroke="rgb(50%, 50%, 50%)" stroke-opacity="1" stroke-miterlimit="10" d="M 69.575781 -92.770687 C 69.575781 -86.368344 64.384375 -81.176937 57.982031 -81.176937 C 51.579687 -81.176937 46.388281 -86.368344 46.388281 -92.770687 C 46.388281 -99.173031 51.579687 -104.364437 57.982031 -104.364437 C 64.384375 -104.364437 69.575781 -99.173031 69.575781 -92.770687 Z M 69.575781 -92.770687 " transform="matrix(1, 0, 0, -1, 0.1, 127.659)"/>
<path fill-rule="nonzero" fill="rgb(0%, 50%, 50%)" fill-opacity="1" stroke-width="0.19925" stroke-linecap="butt" stroke-linejoin="miter" stroke="rgb(50%, 50%, 50%)" stroke-opacity="1" stroke-miterlimit="10" d="M 102.048438 -102.048031 C 102.048438 -92.657406 94.43125 -85.040219 85.040625 -85.040219 C 75.646094 -85.040219 68.032813 -92.657406 68.032813 -102.048031 C 68.032813 -111.442562 75.646094 -119.055844 85.040625 -119.055844 C 94.43125 -119.055844 102.048438 -111.442562 102.048438 -102.048031 Z M 102.048438 -102.048031 " transform="matrix(1, 0, 0, -1, 0.1, 127.659)"/>
<g clip-path="url(#clip-5)">
<path fill-rule="nonzero" fill="rgb(0%, 50%, 50%)" fill-opacity="1" d="M 153.175781 229.707031 C 153.175781 215.617188 141.75 204.195312 127.660156 204.195312 C 113.570312 204.195312 102.148438 215.617188 102.148438 229.707031 C 102.148438 243.796875 113.570312 255.21875 127.660156 255.21875 C 141.75 255.21875 153.175781 243.796875 153.175781 229.707031 Z M 153.175781 229.707031 "/>
</g>
<g clip-path="url(#clip-6)">
<path fill="none" stroke-width="0.19925" stroke-linecap="butt" stroke-linejoin="miter" stroke="rgb(50%, 50%, 50%)" stroke-opacity="1" stroke-miterlimit="10" d="M 153.075781 -102.048031 C 153.075781 -87.958187 141.65 -76.536312 127.560156 -76.536312 C 113.470313 -76.536312 102.048438 -87.958187 102.048438 -102.048031 C 102.048438 -116.137875 113.470313 -127.55975 127.560156 -127.55975 C 141.65 -127.55975 153.075781 -116.137875 153.075781 -102.048031 Z M 153.075781 -102.048031 " transform="matrix(1, 0, 0, -1, 0.1, 127.659)"/>
</g>
<path fill-rule="nonzero" fill="rgb(0%, 50%, 50%)" fill-opacity="1" stroke-width="0.19925" stroke-linecap="butt" stroke-linejoin="miter" stroke="rgb(50%, 50%, 50%)" stroke-opacity="1" stroke-miterlimit="10" d="M 218.65 -72.891781 C 218.65 -52.774594 202.341406 -36.469906 182.228125 -36.469906 C 162.110938 -36.469906 145.802344 -52.774594 145.802344 -72.891781 C 145.802344 -93.008969 162.110938 -109.317562 182.228125 -109.317562 C 202.341406 -109.317562 218.65 -93.008969 218.65 -72.891781 Z M 218.65 -72.891781 " transform="matrix(1, 0, 0, -1, 0.1, 127.659)"/>
<g clip-path="url(#clip-7)">
<path fill-rule="nonzero" fill="rgb(0%, 50%, 50%)" fill-opacity="1" d="M 255.199219 127.660156 C 255.199219 104.1875 236.171875 85.160156 212.699219 85.160156 C 189.230469 85.160156 170.203125 104.1875 170.203125 127.660156 C 170.203125 151.132812 189.230469 170.160156 212.699219 170.160156 C 236.171875 170.160156 255.199219 151.132812 255.199219 127.660156 Z M 255.199219 127.660156 "/>
</g>
<g clip-path="url(#clip-8)">
<path fill="none" stroke-width="0.19925" stroke-linecap="butt" stroke-linejoin="miter" stroke="rgb(50%, 50%, 50%)" stroke-opacity="1" stroke-miterlimit="10" d="M 255.099219 -0.00115625 C 255.099219 23.4715 236.071875 42.498844 212.599219 42.498844 C 189.130469 42.498844 170.103125 23.4715 170.103125 -0.00115625 C 170.103125 -23.473812 189.130469 -42.501156 212.599219 -42.501156 C 236.071875 -42.501156 255.099219 -23.473812 255.099219 -0.00115625 Z M 255.099219 -0.00115625 " transform="matrix(1, 0, 0, -1, 0.1, 127.659)"/>
</g>
<path fill-rule="nonzero" fill="rgb(0%, 50%, 50%)" fill-opacity="1" stroke-width="0.19925" stroke-linecap="butt" stroke-linejoin="miter" stroke="rgb(50%, 50%, 50%)" stroke-opacity="1" stroke-miterlimit="10" d="M 218.669531 72.893375 C 218.669531 93.018375 202.353125 109.334781 182.228125 109.334781 C 162.099219 109.334781 145.786719 93.018375 145.786719 72.893375 C 145.786719 52.764469 162.099219 36.448063 182.228125 36.448063 C 202.353125 36.448063 218.669531 52.764469 218.669531 72.893375 Z M 218.669531 72.893375 " transform="matrix(1, 0, 0, -1, 0.1, 127.659)"/>
<path fill-rule="nonzero" fill="rgb(0%, 50%, 50%)" fill-opacity="1" stroke-width="0.19925" stroke-linecap="butt" stroke-linejoin="miter" stroke="rgb(50%, 50%, 50%)" stroke-opacity="1" stroke-miterlimit="10" d="M 153.064063 102.049625 C 153.064063 116.135563 141.646094 127.553531 127.560156 127.553531 C 113.474219 127.553531 102.05625 116.135563 102.05625 102.049625 C 102.05625 87.963688 113.474219 76.545719 127.560156 76.545719 C 141.646094 76.545719 153.064063 87.963688 153.064063 102.049625 Z M 153.064063 102.049625 " transform="matrix(1, 0, 0, -1, 0.1, 127.659)"/>
<path fill-rule="nonzero" fill="rgb(0%, 50%, 50%)" fill-opacity="1" stroke-width="0.19925" stroke-linecap="butt" stroke-linejoin="miter" stroke="rgb(50%, 50%, 50%)" stroke-opacity="1" stroke-miterlimit="10" d="M 102.048438 102.049625 C 102.048438 111.44025 94.435156 119.057438 85.040625 119.057438 C 75.646094 119.057438 68.032813 111.44025 68.032813 102.049625 C 68.032813 92.655094 75.646094 85.041813 85.040625 85.041813 C 94.435156 85.041813 102.048438 92.655094 102.048438 102.049625 Z M 102.048438 102.049625 " transform="matrix(1, 0, 0, -1, 0.1, 127.659)"/>
<path fill-rule="nonzero" fill="rgb(0%, 50%, 50%)" fill-opacity="1" stroke-width="0.19925" stroke-linecap="butt" stroke-linejoin="miter" stroke="rgb(50%, 50%, 50%)" stroke-opacity="1" stroke-miterlimit="10" d="M 69.579688 92.772281 C 69.579688 99.174625 64.388281 104.366031 57.982031 104.366031 C 51.579687 104.366031 46.384375 99.174625 46.384375 92.772281 C 46.384375 86.366031 51.579687 81.174625 57.982031 81.174625 C 64.388281 81.174625 69.579688 86.366031 69.579688 92.772281 Z M 69.579688 92.772281 " transform="matrix(1, 0, 0, -1, 0.1, 127.659)"/>
<path fill-rule="nonzero" fill="rgb(0%, 50%, 50%)" fill-opacity="1" stroke-width="0.19925" stroke-linecap="butt" stroke-linejoin="miter" stroke="rgb(50%, 50%, 50%)" stroke-opacity="1" stroke-miterlimit="10" d="M 49.376562 82.295719 C 49.376562 86.842594 45.692969 90.526188 41.146094 90.526188 C 36.603125 90.526188 32.919531 86.842594 32.919531 82.295719 C 32.919531 77.75275 36.603125 74.06525 41.146094 74.06525 C 45.692969 74.06525 49.376562 77.75275 49.376562 82.295719 Z M 49.376562 82.295719 " transform="matrix(1, 0, 0, -1, 0.1, 127.659)"/>
<path fill-rule="nonzero" fill="rgb(0%, 50%, 50%)" fill-opacity="1" stroke-width="0.19925" stroke-linecap="butt" stroke-linejoin="miter" stroke="rgb(50%, 50%, 50%)" stroke-opacity="1" stroke-miterlimit="10" d="M 36.442969 72.893375 C 36.442969 76.244938 33.724219 78.963688 30.372656 78.963688 C 27.017187 78.963688 24.298437 76.244938 24.298437 72.893375 C 24.298437 69.537906 27.017187 66.819156 30.372656 66.819156 C 33.724219 66.819156 36.442969 69.537906 36.442969 72.893375 Z M 36.442969 72.893375 " transform="matrix(1, 0, 0, -1, 0.1, 127.659)"/>
<path fill-rule="nonzero" fill="rgb(0%, 50%, 50%)" fill-opacity="1" stroke-width="0.19925" stroke-linecap="butt" stroke-linejoin="miter" stroke="rgb(50%, 50%, 50%)" stroke-opacity="1" stroke-miterlimit="10" d="M 27.829687 64.94025 C 27.829687 67.50275 25.755469 69.576969 23.192969 69.576969 C 20.630469 69.576969 18.55625 67.50275 18.55625 64.94025 C 18.55625 62.37775 20.630469 60.303531 23.192969 60.303531 C 25.755469 60.303531 27.829687 62.37775 27.829687 64.94025 Z M 27.829687 64.94025 " transform="matrix(1, 0, 0, -1, 0.1, 127.659)"/>
<path fill-rule="nonzero" fill="rgb(0%, 50%, 50%)" fill-opacity="1" stroke-width="0.19925" stroke-linecap="butt" stroke-linejoin="miter" stroke="rgb(50%, 50%, 50%)" stroke-opacity="1" stroke-miterlimit="10" d="M 21.86875 58.31525 C 21.86875 60.326969 20.235937 61.955875 18.224219 61.955875 C 16.208594 61.955875 14.579688 60.326969 14.579688 58.31525 C 14.579688 56.299625 16.208594 54.670719 18.224219 54.670719 C 20.235937 54.670719 21.86875 56.299625 21.86875 58.31525 Z M 21.86875 58.31525 " transform="matrix(1, 0, 0, -1, 0.1, 127.659)"/>
<path fill-rule="nonzero" fill="rgb(0%, 50%, 50%)" fill-opacity="1" stroke-width="0.19925" stroke-linecap="butt" stroke-linejoin="miter" stroke="rgb(50%, 50%, 50%)" stroke-opacity="1" stroke-miterlimit="10" d="M 17.595312 52.784 C 17.595312 54.405094 16.282812 55.717594 14.661719 55.717594 C 13.044531 55.717594 11.728125 54.405094 11.728125 52.784 C 11.728125 51.162906 13.044531 49.850406 14.661719 49.850406 C 16.282812 49.850406 17.595312 51.162906 17.595312 52.784 Z M 17.595312 52.784 " transform="matrix(1, 0, 0, -1, 0.1, 127.659)"/>
<path fill-rule="nonzero" fill="rgb(0%, 50%, 50%)" fill-opacity="1" stroke-width="0.19925" stroke-linecap="butt" stroke-linejoin="miter" stroke="rgb(50%, 50%, 50%)" stroke-opacity="1" stroke-miterlimit="10" d="M 14.439063 48.135563 C 14.439063 49.463688 13.364844 50.541813 12.032813 50.541813 C 10.704688 50.541813 9.626563 49.463688 9.626563 48.135563 C 9.626563 46.807438 10.704688 45.729313 12.032813 45.729313 C 13.364844 45.729313 14.439063 46.807438 14.439063 48.135563 Z M 14.439063 48.135563 " transform="matrix(1, 0, 0, -1, 0.1, 127.659)"/>
<path fill-rule="nonzero" fill="rgb(0%, 50%, 50%)" fill-opacity="1" stroke-width="0.19925" stroke-linecap="butt" stroke-linejoin="miter" stroke="rgb(50%, 50%, 50%)" stroke-opacity="1" stroke-miterlimit="10" d="M 12.052344 44.194156 C 12.052344 45.303531 11.153906 46.201969 10.044531 46.201969 C 8.935156 46.201969 8.036719 45.303531 8.036719 44.194156 C 8.036719 43.084781 8.935156 42.186344 10.044531 42.186344 C 11.153906 42.186344 12.052344 43.084781 12.052344 44.194156 Z M 12.052344 44.194156 " transform="matrix(1, 0, 0, -1, 0.1, 127.659)"/>
<path fill-rule="nonzero" fill="rgb(0%, 50%, 50%)" fill-opacity="1" stroke-width="0.19925" stroke-linecap="butt" stroke-linejoin="miter" stroke="rgb(50%, 50%, 50%)" stroke-opacity="1" stroke-miterlimit="10" d="M 10.204688 40.819156 C 10.204688 41.756656 9.442969 42.518375 8.505469 42.518375 C 7.564063 42.518375 6.802344 41.756656 6.802344 40.819156 C 6.802344 39.87775 7.564063 39.119938 8.505469 39.119938 C 9.442969 39.119938 10.204688 39.87775 10.204688 40.819156 Z M 10.204688 40.819156 " transform="matrix(1, 0, 0, -1, 0.1, 127.659)"/>
<path fill-rule="nonzero" fill="rgb(0%, 50%, 50%)" fill-opacity="1" stroke-width="0.19925" stroke-linecap="butt" stroke-linejoin="miter" stroke="rgb(50%, 50%, 50%)" stroke-opacity="1" stroke-miterlimit="10" d="M 8.747656 37.905094 C 8.747656 38.709781 8.095313 39.362125 7.290625 39.362125 C 6.485938 39.362125 5.829688 38.709781 5.829688 37.905094 C 5.829688 37.100406 6.485938 36.444156 7.290625 36.444156 C 8.095313 36.444156 8.747656 37.100406 8.747656 37.905094 Z M 8.747656 37.905094 " transform="matrix(1, 0, 0, -1, 0.1, 127.659)"/>
<path fill-rule="nonzero" fill="rgb(0%, 50%, 50%)" fill-opacity="1" stroke-width="0.19925" stroke-linecap="butt" stroke-linejoin="miter" stroke="rgb(50%, 50%, 50%)" stroke-opacity="1" stroke-miterlimit="10" d="M 7.575781 35.362125 C 7.575781 36.061344 7.013281 36.62775 6.314063 36.62775 C 5.61875 36.62775 5.052344 36.061344 5.052344 35.362125 C 5.052344 34.666813 5.61875 34.100406 6.314063 34.100406 C 7.013281 34.100406 7.575781 34.666813 7.575781 35.362125 Z M 7.575781 35.362125 " transform="matrix(1, 0, 0, -1, 0.1, 127.659)"/>
<path fill-rule="nonzero" fill="rgb(0%, 50%, 50%)" fill-opacity="1" stroke-width="0.19925" stroke-linecap="butt" stroke-linejoin="miter" stroke="rgb(50%, 50%, 50%)" stroke-opacity="1" stroke-miterlimit="10" d="M 6.626563 33.131656 C 6.626563 33.741031 6.130469 34.237125 5.521094 34.237125 C 4.911719 34.237125 4.415625 33.741031 4.415625 33.131656 C 4.415625 32.522281 4.911719 32.026188 5.521094 32.026188 C 6.130469 32.026188 6.626563 32.522281 6.626563 33.131656 Z M 6.626563 33.131656 " transform="matrix(1, 0, 0, -1, 0.1, 127.659)"/>
<path fill-rule="nonzero" fill="rgb(0%, 50%, 50%)" fill-opacity="1" stroke-width="0.19925" stroke-linecap="butt" stroke-linejoin="miter" stroke="rgb(50%, 50%, 50%)" stroke-opacity="1" stroke-miterlimit="10" d="M 5.841406 31.159 C 5.841406 31.698063 5.407813 32.131656 4.86875 32.131656 C 4.329688 32.131656 3.896094 31.698063 3.896094 31.159 C 3.896094 30.619938 4.329688 30.186344 4.86875 30.186344 C 5.407813 30.186344 5.841406 30.619938 5.841406 31.159 Z M 5.841406 31.159 " transform="matrix(1, 0, 0, -1, 0.1, 127.659)"/>
</svg>
